# xmcd
#
# Track frame offsets: 
#        150
#        12159
#        30280
#        47003
#        62627
#        76356
#        90860
#        108027
#        123294
#        138224
#        153660
#        168441
#        185163
#
# Disc length: 2732 seconds
#
# Revision: 0
# Processed by: cddbd v1.5.2PL0 Copyright (c) Steve Scherf et al.
# Submitted via: ExactAudioCopy v0.95b4
#
DISCID=940aaa0d
DTITLE=Celilo - Bending Mirrors
DYEAR=2009
DGENRE=Alternative
TTITLE0=Easter Lily
TTITLE1=Wy-Am
TTITLE2=Winter Pills
TTITLE3=Bush Pilot
TTITLE4=Piñata
TTITLE5=Cigarette Blues
TTITLE6=Donut Queen
TTITLE7=Sunken Ships
TTITLE8=Sirens Of Metropolis
TTITLE9=Pink Sofa
TTITLE10=Little Coquette
TTITLE11=Clatter Of Hooves
TTITLE12=Pleistocene
EXTD=
EXTT0=
EXTT1=
EXTT2=
EXTT3=
EXTT4=
EXTT5=
EXTT6=
EXTT7=
EXTT8=
EXTT9=
EXTT10=
EXTT11=
EXTT12=
PLAYORDER=
